This is a stereoscopic 3D rip of
Monsters Vs Aliens - BOB's Big
Break, for new 3D TVs or
computers with Nvidia 3D Vision.
Tested with Stereoscopic Player.
Enjoy!
Title: Monsters Vs Aliens - BOB's
Big Break (2009)
Rated: Not Rated
Runtime: 13 Minutes
Genre: Animation | Short |
Comedy
Description:
B.O.B. and his monstrous crew
are on a mission to bust out of
Area 52, the government's top-
secret holding cell. Led by mad-
scientist Dr. Cockroach Ph.D. and
macho amphibian The Missing
Link, the trio outwits grizzled
General W.R. Monger to make a
triumphant escape... almost.
-From Big Cartoon Database: 
http://www.bcdb.com/
cartoon_story/114024-
BOBS_Big_Break.html
IMDB Link: http://
www.imdb.com/title/tt1542599/
General
Unique ID :
196868814722813095219836585845380281878
(0x941B8DF645BD0CA0A7C55DF0C6EEF616)
Complete name :
[Filepath]\Monsters Vs Aliens -
BOB's Big Break 3D.mkv
Format : Matroska
File size : 768 MiB
Duration : 13mn 21s
Overall bit rate : 8 039 Kbps
Movie name :
MONSTERS_VS_ALIENS_3D.Title1504.Bluray3DRip
Encoded date : UTC 2010-11-22
22:58:02
Writing application : DVDFab
Writing library : libebml v0.7.8 +
libmatroska v0.8.1
Video
ID : 3
Format : AVC
Format/Info : Advanced Video
Codec
Format profile : High@L5.1
Format settings, CABAC : Yes
Format settings, ReFrames : 1
frame
Format settings, GOP : M=1,
N=15
Codec ID : V_MPEG4/ISO/AVC
Duration : 13mn 21s
Bit rate mode : Variable
Bit rate : 7 239 Kbps
Maximum bit rate : 11.2 Mbps
Width : 1 920 pixels
Height : 1 080 pixels
Display aspect ratio : 16:9
Frame rate : 23.976 fps
Color space : YUV
Chroma subsampling : 4:2:0
Bit depth : 8 bits
Scan type : Progressive
Bits/(Pixel*Frame) : 0.146
Stream size : 692 MiB (90%)
Audio
ID : 4
Format : AC-3
Format/Info : Audio Coding 3
Mode extension : CM (complete
main)
Codec ID : A_AC3
Duration : 13mn 21s
Bit rate mode : Constant
Bit rate : 640 Kbps
Channel(s) : 6 channels
Channel positions : Front: L C R,
Side: L R, LFE
Sampling rate : 48.0 KHz
Bit depth : 16 bits
Compression mode : Lossy
Stream size : 61.1 MiB (8%)
Language : English
Menu
00:00:00.000 : en:
(01)00:00:00:000
00:13:20.800 : en:
(02)00:13:20:800